<svg id="visual" viewBox="0 0 1920 104" width="1920" height="104" xmlns="http://www.w3.org/2000/svg" xmlns:xlink="http://www.w3.org/1999/xlink" version="1.1"><rect x="0" y="0" width="1920" height="104" fill="transparent"></rect><path d="M0 63L26.7 62.8C53.3 62.7 106.7 62.3 160 64.5C213.3 66.7 266.7 71.3 320 72.8C373.3 74.3 426.7 72.7 480 73C533.3 73.3 586.7 75.7 640 73C693.3 70.3 746.7 62.7 800 60.5C853.3 58.3 906.7 61.7 960 63.5C1013.3 65.3 1066.7 65.7 1120 64.8C1173.3 64 1226.7 62 1280 60.3C1333.3 58.7 1386.7 57.3 1440 59C1493.3 60.7 1546.7 65.3 1600 69C1653.3 72.7 1706.7 75.3 1760 73.8C1813.3 72.3 1866.7 66.7 1893.3 63.8L1920 61L1920 0L1893.3 0C1866.7 0 1813.3 0 1760 0C1706.7 0 1653.3 0 1600 0C1546.7 0 1493.3 0 1440 0C1386.7 0 1333.3 0 1280 0C1226.7 0 1173.3 0 1120 0C1066.7 0 1013.3 0 960 0C906.7 0 853.3 0 800 0C746.7 0 693.3 0 640 0C586.7 0 533.3 0 480 0C426.7 0 373.3 0 320 0C266.7 0 213.3 0 160 0C106.7 0 53.3 0 26.7 0L0 0Z" fill="transparent"></path><path d="M0 65L26.7 65C53.3 65 106.7 65 160 62.8C213.3 60.7 266.7 56.3 320 55.5C373.3 54.7 426.7 57.3 480 60.2C533.3 63 586.7 66 640 66.8C693.3 67.7 746.7 66.3 800 63.3C853.3 60.3 906.7 55.7 960 56.2C1013.3 56.7 1066.7 62.3 1120 66C1173.3 69.7 1226.7 71.3 1280 69.8C1333.3 68.3 1386.7 63.7 1440 63.5C1493.3 63.3 1546.7 67.7 1600 68.5C1653.3 69.3 1706.7 66.7 1760 63.3C1813.3 60 1866.7 56 1893.3 54L1920 52L1920 0L1893.3 0C1866.7 0 1813.3 0 1760 0C1706.7 0 1653.3 0 1600 0C1546.7 0 1493.3 0 1440 0C1386.7 0 1333.3 0 1280 0C1226.7 0 1173.3 0 1120 0C1066.7 0 1013.3 0 960 0C906.7 0 853.3 0 800 0C746.7 0 693.3 0 640 0C586.7 0 533.3 0 480 0C426.7 0 373.3 0 320 0C266.7 0 213.3 0 160 0C106.7 0 53.3 0 26.7 0L0 0Z" fill="#2a222f"></path><path d="M0 44L26.7 46.8C53.3 49.7 106.7 55.3 160 58.5C213.3 61.7 266.7 62.3 320 61.8C373.3 61.3 426.7 59.7 480 56.3C533.3 53 586.7 48 640 45.8C693.3 43.7 746.7 44.3 800 46C853.3 47.7 906.7 50.3 960 50C1013.3 49.7 1066.7 46.3 1120 44.5C1173.3 42.7 1226.7 42.3 1280 45.2C1333.3 48 1386.7 54 1440 55C1493.3 56 1546.7 52 1600 51.2C1653.3 50.3 1706.7 52.7 1760 54.5C1813.3 56.3 1866.7 57.7 1893.3 58.3L1920 59L1920 0L1893.3 0C1866.7 0 1813.3 0 1760 0C1706.7 0 1653.3 0 1600 0C1546.7 0 1493.3 0 1440 0C1386.7 0 1333.3 0 1280 0C1226.7 0 1173.3 0 1120 0C1066.7 0 1013.3 0 960 0C906.7 0 853.3 0 800 0C746.7 0 693.3 0 640 0C586.7 0 533.3 0 480 0C426.7 0 373.3 0 320 0C266.7 0 213.3 0 160 0C106.7 0 53.3 0 26.7 0L0 0Z" fill="#53364d"></path><path d="M0 49L26.7 46.7C53.3 44.3 106.7 39.7 160 37.5C213.3 35.3 266.7 35.7 320 37.2C373.3 38.7 426.7 41.3 480 42.7C533.3 44 586.7 44 640 43.5C693.3 43 746.7 42 800 43.3C853.3 44.7 906.7 48.3 960 47C1013.3 45.7 1066.7 39.3 1120 37.2C1173.3 35 1226.7 37 1280 39C1333.3 41 1386.7 43 1440 42.3C1493.3 41.7 1546.7 38.3 1600 36.7C1653.3 35 1706.7 35 1760 35.7C1813.3 36.3 1866.7 37.7 1893.3 38.3L1920 39L1920 0L1893.3 0C1866.7 0 1813.3 0 1760 0C1706.7 0 1653.3 0 1600 0C1546.7 0 1493.3 0 1440 0C1386.7 0 1333.3 0 1280 0C1226.7 0 1173.3 0 1120 0C1066.7 0 1013.3 0 960 0C906.7 0 853.3 0 800 0C746.7 0 693.3 0 640 0C586.7 0 533.3 0 480 0C426.7 0 373.3 0 320 0C266.7 0 213.3 0 160 0C106.7 0 53.3 0 26.7 0L0 0Z" fill="#854960"></path><path d="M0 38L26.7 36C53.3 34 106.7 30 160 27.5C213.3 25 266.7 24 320 24.7C373.3 25.3 426.7 27.7 480 29.7C533.3 31.7 586.7 33.3 640 34.2C693.3 35 746.7 35 800 35.7C853.3 36.3 906.7 37.7 960 36C1013.3 34.3 1066.7 29.7 1120 29C1173.3 28.3 1226.7 31.7 1280 32.8C1333.3 34 1386.7 33 1440 31C1493.3 29 1546.7 26 1600 27.5C1653.3 29 1706.7 35 1760 36.2C1813.3 37.3 1866.7 33.7 1893.3 31.8L1920 30L1920 0L1893.3 0C1866.7 0 1813.3 0 1760 0C1706.7 0 1653.3 0 1600 0C1546.7 0 1493.3 0 1440 0C1386.7 0 1333.3 0 1280 0C1226.7 0 1173.3 0 1120 0C1066.7 0 1013.3 0 960 0C906.7 0 853.3 0 800 0C746.7 0 693.3 0 640 0C586.7 0 533.3 0 480 0C426.7 0 373.3 0 320 0C266.7 0 213.3 0 160 0C106.7 0 53.3 0 26.7 0L0 0Z" fill="#b75f68"></path><path d="M0 23L26.7 23C53.3 23 106.7 23 160 22.3C213.3 21.7 266.7 20.3 320 21.3C373.3 22.3 426.7 25.7 480 26.3C533.3 27 586.7 25 640 22.5C693.3 20 746.7 17 800 16.7C853.3 16.3 906.7 18.7 960 19.2C1013.3 19.7 1066.7 18.3 1120 18.5C1173.3 18.7 1226.7 20.3 1280 22.5C1333.3 24.7 1386.7 27.3 1440 26.2C1493.3 25 1546.7 20 1600 17.7C1653.3 15.3 1706.7 15.7 1760 17C1813.3 18.3 1866.7 20.7 1893.3 21.8L1920 23L1920 0L1893.3 0C1866.7 0 1813.3 0 1760 0C1706.7 0 1653.3 0 1600 0C1546.7 0 1493.3 0 1440 0C1386.7 0 1333.3 0 1280 0C1226.7 0 1173.3 0 1120 0C1066.7 0 1013.3 0 960 0C906.7 0 853.3 0 800 0C746.7 0 693.3 0 640 0C586.7 0 533.3 0 480 0C426.7 0 373.3 0 320 0C266.7 0 213.3 0 160 0C106.7 0 53.3 0 26.7 0L0 0Z" fill="#e27d66"></path><path d="M0 6L26.7 8C53.3 10 106.7 14 160 14C213.3 14 266.7 10 320 9C373.3 8 426.7 10 480 11.3C533.3 12.7 586.7 13.3 640 13.7C693.3 14 746.7 14 800 13.2C853.3 12.3 906.7 10.7 960 10C1013.3 9.3 1066.7 9.7 1120 11.2C1173.3 12.7 1226.7 15.3 1280 15.2C1333.3 15 1386.7 12 1440 11.5C1493.3 11 1546.7 13 1600 13.2C1653.3 13.3 1706.7 11.7 1760 10.7C1813.3 9.7 1866.7 9.3 1893.3 9.2L1920 9L1920 0L1893.3 0C1866.7 0 1813.3 0 1760 0C1706.7 0 1653.3 0 1600 0C1546.7 0 1493.3 0 1440 0C1386.7 0 1333.3 0 1280 0C1226.7 0 1173.3 0 1120 0C1066.7 0 1013.3 0 960 0C906.7 0 853.3 0 800 0C746.7 0 693.3 0 640 0C586.7 0 533.3 0 480 0C426.7 0 373.3 0 320 0C266.7 0 213.3 0 160 0C106.7 0 53.3 0 26.7 0L0 0Z" fill="#543884"></path></svg>