<?xml version="1.0" standalone="no"?>
<svg viewBox="0 0 200 200" xmlns="http://www.w3.org/2000/svg">
  <path fill="#FF0066" d="M41.3,-64.2C54.5,-55.8,66.8,-46,68.4,-33.8C70,-21.6,61.1,-7,54.3,4.5C47.5,16,42.8,24.6,38.1,36.7C33.3,48.8,28.5,64.6,19.5,67.8C10.6,71,-2.4,61.7,-16.2,56.8C-30,52,-44.5,51.6,-50.9,44.2C-57.3,36.7,-55.5,22.2,-60.1,7.1C-64.6,-8,-75.5,-23.7,-75.1,-38.3C-74.7,-52.9,-63,-66.4,-48.6,-74.2C-34.2,-82.1,-17.1,-84.4,-1.5,-82C14.1,-79.6,28.1,-72.7,41.3,-64.2Z" transform="translate(100 100)" />
</svg>
